<svg width="46" height="30" viewBox="0 0 46 30" fill="none" xmlns="http://www.w3.org/2000/svg">
<path d="M21.5111 30L19.3886 22.887H8.77588L6.65334 30H0L10.2861 0H17.8375L28.1644 30H21.5111ZM15.7966 10.6276C15.6605 10.1534 15.4836 9.5537 15.2659 8.82845C15.0482 8.10321 14.8306 7.36402 14.6129 6.61088C14.3952 5.85774 14.2183 5.20223 14.0822 4.64435C13.9462 5.20223 13.7557 5.89958 13.5108 6.7364C13.2931 7.54533 13.0754 8.32636 12.8577 9.0795C12.6672 9.80474 12.5175 10.3208 12.4087 10.6276L10.327 17.5732H17.9191L15.7966 10.6276Z" fill="white"/>
<path d="M40.5191 17.129H45.5815C45.8605 17.129 46 17.272 46 17.558V21.0516C46 21.3512 45.8605 21.501 45.5815 21.501H40.5191V26.6903C40.5191 26.9763 40.3729 27.1193 40.0806 27.1193H36.6724C36.3934 27.1193 36.2539 26.9763 36.2539 26.6903V21.501H31.1915C30.9125 21.501 30.773 21.3512 30.773 21.0516V17.558C30.773 17.272 30.9125 17.129 31.1915 17.129H36.2539V11.9397C36.2539 11.6537 36.3934 11.5107 36.6724 11.5107H40.0806C40.3729 11.5107 40.5191 11.6537 40.5191 11.9397V17.129Z" fill="white"/>
</svg>
